<svg xmlns="http://www.w3.org/2000/svg" viewBox="0 0 760 430" font-family="system-ui,Segoe UI,Roboto,sans-serif">
<rect width="760" height="430" fill="#fcfcfb"/>
<text x="64" y="24" font-size="15" font-weight="700" fill="#2a2a28">Sluice speedup across input size (uniform uint32)</text>
<line x1="64" y1="378.0" x2="570" y2="378.0" stroke="#e8e7e0" stroke-width="1"/>
<text x="56" y="382.0" font-size="11" fill="#898781" text-anchor="end">0x</text>
<line x1="64" y1="352.3" x2="570" y2="352.3" stroke="#8a8a84" stroke-width="1.5"/>
<text x="56" y="356.3" font-size="11" fill="#898781" text-anchor="end">1x</text>
<line x1="64" y1="326.6" x2="570" y2="326.6" stroke="#e8e7e0" stroke-width="1"/>
<line x1="64" y1="300.9" x2="570" y2="300.9" stroke="#e8e7e0" stroke-width="1"/>
<text x="56" y="304.9" font-size="11" fill="#898781" text-anchor="end">3x</text>
<line x1="64" y1="275.2" x2="570" y2="275.2" stroke="#e8e7e0" stroke-width="1"/>
<line x1="64" y1="249.5" x2="570" y2="249.5" stroke="#e8e7e0" stroke-width="1"/>
<text x="56" y="253.5" font-size="11" fill="#898781" text-anchor="end">5x</text>
<line x1="64" y1="223.8" x2="570" y2="223.8" stroke="#e8e7e0" stroke-width="1"/>
<line x1="64" y1="198.2" x2="570" y2="198.2" stroke="#e8e7e0" stroke-width="1"/>
<text x="56" y="202.2" font-size="11" fill="#898781" text-anchor="end">7x</text>
<line x1="64" y1="172.5" x2="570" y2="172.5" stroke="#e8e7e0" stroke-width="1"/>
<line x1="64" y1="146.8" x2="570" y2="146.8" stroke="#e8e7e0" stroke-width="1"/>
<text x="56" y="150.8" font-size="11" fill="#898781" text-anchor="end">9x</text>
<line x1="64" y1="121.1" x2="570" y2="121.1" stroke="#e8e7e0" stroke-width="1"/>
<line x1="64" y1="95.4" x2="570" y2="95.4" stroke="#e8e7e0" stroke-width="1"/>
<text x="56" y="99.4" font-size="11" fill="#898781" text-anchor="end">11x</text>
<line x1="64" y1="69.7" x2="570" y2="69.7" stroke="#e8e7e0" stroke-width="1"/>
<line x1="64" y1="44.0" x2="570" y2="44.0" stroke="#e8e7e0" stroke-width="1"/>
<text x="56" y="48.0" font-size="11" fill="#898781" text-anchor="end">13x</text>
<text x="56" y="346.3" font-size="10" fill="#8a8a84" text-anchor="end">parity</text>
<line x1="64.0" y1="378" x2="64.0" y2="383" stroke="#898781"/>
<text x="64.0" y="398" font-size="11" fill="#898781" text-anchor="middle">8</text>
<line x1="153.3" y1="378" x2="153.3" y2="383" stroke="#898781"/>
<text x="153.3" y="398" font-size="11" fill="#898781" text-anchor="middle">64</text>
<line x1="242.6" y1="378" x2="242.6" y2="383" stroke="#898781"/>
<text x="242.6" y="398" font-size="11" fill="#898781" text-anchor="middle">512</text>
<line x1="331.9" y1="378" x2="331.9" y2="383" stroke="#898781"/>
<text x="331.9" y="398" font-size="11" fill="#898781" text-anchor="middle">4k</text>
<line x1="450.9" y1="378" x2="450.9" y2="383" stroke="#898781"/>
<text x="450.9" y="398" font-size="11" fill="#898781" text-anchor="middle">65k</text>
<line x1="570.0" y1="378" x2="570.0" y2="383" stroke="#898781"/>
<text x="570.0" y="398" font-size="11" fill="#898781" text-anchor="middle">1M</text>
<text x="317.0" y="422" font-size="12" fill="#898781" text-anchor="middle">n elements (log scale)</text>
<text x="16" y="211.0" font-size="12" fill="#898781" text-anchor="middle" transform="rotate(-90 16 211.0)">x faster than the other method</text>
<path d="M64.0,351.8 L93.8,353.3 L123.5,326.6 L153.3,302.7 L183.1,280.6 L212.8,263.1 L242.6,244.3 L272.4,260.9 L331.9,226.5 L391.4,209.9 L450.9,198.5 L510.5,230.1 L570.0,192.2" fill="none" stroke="#2a78d6" stroke-width="2.5" stroke-linejoin="round" stroke-linecap="round"/>
<circle cx="64.0" cy="351.8" r="3.2" fill="#2a78d6" stroke="#fcfcfb" stroke-width="1"/>
<circle cx="93.8" cy="353.3" r="3.2" fill="#2a78d6" stroke="#fcfcfb" stroke-width="1"/>
<circle cx="123.5" cy="326.6" r="3.2" fill="#2a78d6" stroke="#fcfcfb" stroke-width="1"/>
<circle cx="153.3" cy="302.7" r="3.2" fill="#2a78d6" stroke="#fcfcfb" stroke-width="1"/>
<circle cx="183.1" cy="280.6" r="3.2" fill="#2a78d6" stroke="#fcfcfb" stroke-width="1"/>
<circle cx="212.8" cy="263.1" r="3.2" fill="#2a78d6" stroke="#fcfcfb" stroke-width="1"/>
<circle cx="242.6" cy="244.3" r="3.2" fill="#2a78d6" stroke="#fcfcfb" stroke-width="1"/>
<circle cx="272.4" cy="260.9" r="3.2" fill="#2a78d6" stroke="#fcfcfb" stroke-width="1"/>
<circle cx="331.9" cy="226.5" r="3.2" fill="#2a78d6" stroke="#fcfcfb" stroke-width="1"/>
<circle cx="391.4" cy="209.9" r="3.2" fill="#2a78d6" stroke="#fcfcfb" stroke-width="1"/>
<circle cx="450.9" cy="198.5" r="3.2" fill="#2a78d6" stroke="#fcfcfb" stroke-width="1"/>
<circle cx="510.5" cy="230.1" r="3.2" fill="#2a78d6" stroke="#fcfcfb" stroke-width="1"/>
<circle cx="570.0" cy="192.2" r="3.2" fill="#2a78d6" stroke="#fcfcfb" stroke-width="1"/>
<path d="M64.0,339.4 L93.8,337.9 L123.5,318.1 L153.3,291.2 L183.1,267.8 L212.8,248.2 L242.6,229.0 L272.4,245.4 L331.9,206.3 L391.4,185.3 L450.9,169.1 L510.5,204.2 L570.0,164.2" fill="none" stroke="#c98a2b" stroke-width="2.5" stroke-linejoin="round" stroke-linecap="round"/>
<circle cx="64.0" cy="339.4" r="3.2" fill="#c98a2b" stroke="#fcfcfb" stroke-width="1"/>
<circle cx="93.8" cy="337.9" r="3.2" fill="#c98a2b" stroke="#fcfcfb" stroke-width="1"/>
<circle cx="123.5" cy="318.1" r="3.2" fill="#c98a2b" stroke="#fcfcfb" stroke-width="1"/>
<circle cx="153.3" cy="291.2" r="3.2" fill="#c98a2b" stroke="#fcfcfb" stroke-width="1"/>
<circle cx="183.1" cy="267.8" r="3.2" fill="#c98a2b" stroke="#fcfcfb" stroke-width="1"/>
<circle cx="212.8" cy="248.2" r="3.2" fill="#c98a2b" stroke="#fcfcfb" stroke-width="1"/>
<circle cx="242.6" cy="229.0" r="3.2" fill="#c98a2b" stroke="#fcfcfb" stroke-width="1"/>
<circle cx="272.4" cy="245.4" r="3.2" fill="#c98a2b" stroke="#fcfcfb" stroke-width="1"/>
<circle cx="331.9" cy="206.3" r="3.2" fill="#c98a2b" stroke="#fcfcfb" stroke-width="1"/>
<circle cx="391.4" cy="185.3" r="3.2" fill="#c98a2b" stroke="#fcfcfb" stroke-width="1"/>
<circle cx="450.9" cy="169.1" r="3.2" fill="#c98a2b" stroke="#fcfcfb" stroke-width="1"/>
<circle cx="510.5" cy="204.2" r="3.2" fill="#c98a2b" stroke="#fcfcfb" stroke-width="1"/>
<circle cx="570.0" cy="164.2" r="3.2" fill="#c98a2b" stroke="#fcfcfb" stroke-width="1"/>
<path d="M64.0,331.5 L93.8,323.2 L123.5,288.4 L153.3,247.4 L183.1,209.3 L212.8,180.2 L242.6,153.6 L272.4,180.0 L331.9,129.2 L391.4,105.1 L450.9,88.4 L510.5,133.3 L570.0,62.3" fill="none" stroke="#9c5fb5" stroke-width="2.5" stroke-linejoin="round" stroke-linecap="round"/>
<circle cx="64.0" cy="331.5" r="3.2" fill="#9c5fb5" stroke="#fcfcfb" stroke-width="1"/>
<circle cx="93.8" cy="323.2" r="3.2" fill="#9c5fb5" stroke="#fcfcfb" stroke-width="1"/>
<circle cx="123.5" cy="288.4" r="3.2" fill="#9c5fb5" stroke="#fcfcfb" stroke-width="1"/>
<circle cx="153.3" cy="247.4" r="3.2" fill="#9c5fb5" stroke="#fcfcfb" stroke-width="1"/>
<circle cx="183.1" cy="209.3" r="3.2" fill="#9c5fb5" stroke="#fcfcfb" stroke-width="1"/>
<circle cx="212.8" cy="180.2" r="3.2" fill="#9c5fb5" stroke="#fcfcfb" stroke-width="1"/>
<circle cx="242.6" cy="153.6" r="3.2" fill="#9c5fb5" stroke="#fcfcfb" stroke-width="1"/>
<circle cx="272.4" cy="180.0" r="3.2" fill="#9c5fb5" stroke="#fcfcfb" stroke-width="1"/>
<circle cx="331.9" cy="129.2" r="3.2" fill="#9c5fb5" stroke="#fcfcfb" stroke-width="1"/>
<circle cx="391.4" cy="105.1" r="3.2" fill="#9c5fb5" stroke="#fcfcfb" stroke-width="1"/>
<circle cx="450.9" cy="88.4" r="3.2" fill="#9c5fb5" stroke="#fcfcfb" stroke-width="1"/>
<circle cx="510.5" cy="133.3" r="3.2" fill="#9c5fb5" stroke="#fcfcfb" stroke-width="1"/>
<circle cx="570.0" cy="62.3" r="3.2" fill="#9c5fb5" stroke="#fcfcfb" stroke-width="1"/>
<path d="M64.0,342.0 L93.8,340.2 L123.5,313.0 L153.3,283.2 L183.1,256.2 L212.8,234.6 L242.6,213.3 L272.4,232.6 L331.9,191.7 L391.4,171.2 L450.9,156.5 L510.5,193.5 L570.0,145.7" fill="none" stroke="#1baf7a" stroke-width="4.0" stroke-linejoin="round" stroke-linecap="round"/>
<circle cx="64.0" cy="342.0" r="3.8" fill="#1baf7a" stroke="#fcfcfb" stroke-width="1"/>
<circle cx="93.8" cy="340.2" r="3.8" fill="#1baf7a" stroke="#fcfcfb" stroke-width="1"/>
<circle cx="123.5" cy="313.0" r="3.8" fill="#1baf7a" stroke="#fcfcfb" stroke-width="1"/>
<circle cx="153.3" cy="283.2" r="3.8" fill="#1baf7a" stroke="#fcfcfb" stroke-width="1"/>
<circle cx="183.1" cy="256.2" r="3.8" fill="#1baf7a" stroke="#fcfcfb" stroke-width="1"/>
<circle cx="212.8" cy="234.6" r="3.8" fill="#1baf7a" stroke="#fcfcfb" stroke-width="1"/>
<circle cx="242.6" cy="213.3" r="3.8" fill="#1baf7a" stroke="#fcfcfb" stroke-width="1"/>
<circle cx="272.4" cy="232.6" r="3.8" fill="#1baf7a" stroke="#fcfcfb" stroke-width="1"/>
<circle cx="331.9" cy="191.7" r="3.8" fill="#1baf7a" stroke="#fcfcfb" stroke-width="1"/>
<circle cx="391.4" cy="171.2" r="3.8" fill="#1baf7a" stroke="#fcfcfb" stroke-width="1"/>
<circle cx="450.9" cy="156.5" r="3.8" fill="#1baf7a" stroke="#fcfcfb" stroke-width="1"/>
<circle cx="510.5" cy="193.5" r="3.8" fill="#1baf7a" stroke="#fcfcfb" stroke-width="1"/>
<circle cx="570.0" cy="145.7" r="3.8" fill="#1baf7a" stroke="#fcfcfb" stroke-width="1"/>
<line x1="588" y1="52" x2="610" y2="52" stroke="#2a78d6" stroke-width="3"/>
<text x="616" y="56" font-size="11.5" font-weight="400" fill="#2a2a28">vs std::sort</text>
<line x1="588" y1="76" x2="610" y2="76" stroke="#c98a2b" stroke-width="3"/>
<text x="616" y="80" font-size="11.5" font-weight="400" fill="#2a2a28">vs std::stable_sort</text>
<line x1="588" y1="100" x2="610" y2="100" stroke="#9c5fb5" stroke-width="3"/>
<text x="616" y="104" font-size="11.5" font-weight="400" fill="#2a2a28">vs heapsort</text>
<line x1="588" y1="124" x2="610" y2="124" stroke="#1baf7a" stroke-width="4"/>
<text x="616" y="128" font-size="11.5" font-weight="700" fill="#2a2a28">average gain</text>
<text x="588" y="156" font-size="11" fill="#898781">overall geomean</text>
<text x="588" y="174" font-size="18" font-weight="700" fill="#1baf7a">4.7x</text>
<text x="588" y="190" font-size="10.5" fill="#898781">vs the field</text>
</svg>