<svg xmlns="http://www.w3.org/2000/svg" viewBox="0 0 830 470" font-family="system-ui,Segoe UI,Roboto,sans-serif">
<rect width="830" height="470" fill="#fcfcfb"/>
<text x="62" y="24" font-size="15" font-weight="700" fill="#2a2a28">Time per element across seven sort methods (uniform uint32)</text>
<line x1="62" y1="416.0" x2="634" y2="416.0" stroke="#e8e7e0" stroke-width="1"/>
<text x="54" y="420.0" font-size="11" fill="#898781" text-anchor="end">5</text>
<line x1="62" y1="373.6" x2="634" y2="373.6" stroke="#e8e7e0" stroke-width="1"/>
<text x="54" y="377.6" font-size="11" fill="#898781" text-anchor="end">10</text>
<line x1="62" y1="317.6" x2="634" y2="317.6" stroke="#e8e7e0" stroke-width="1"/>
<text x="54" y="321.6" font-size="11" fill="#898781" text-anchor="end">25</text>
<line x1="62" y1="275.3" x2="634" y2="275.3" stroke="#e8e7e0" stroke-width="1"/>
<text x="54" y="279.3" font-size="11" fill="#898781" text-anchor="end">50</text>
<line x1="62" y1="232.9" x2="634" y2="232.9" stroke="#e8e7e0" stroke-width="1"/>
<text x="54" y="236.9" font-size="11" fill="#898781" text-anchor="end">100</text>
<line x1="62" y1="176.9" x2="634" y2="176.9" stroke="#e8e7e0" stroke-width="1"/>
<text x="54" y="180.9" font-size="11" fill="#898781" text-anchor="end">250</text>
<line x1="62" y1="134.5" x2="634" y2="134.5" stroke="#e8e7e0" stroke-width="1"/>
<text x="54" y="138.5" font-size="11" fill="#898781" text-anchor="end">500</text>
<line x1="62" y1="92.2" x2="634" y2="92.2" stroke="#e8e7e0" stroke-width="1"/>
<text x="54" y="96.2" font-size="11" fill="#898781" text-anchor="end">1000</text>
<line x1="62" y1="49.8" x2="634" y2="49.8" stroke="#e8e7e0" stroke-width="1"/>
<text x="54" y="53.8" font-size="11" fill="#898781" text-anchor="end">2000</text>
<text x="16" y="230.0" font-size="12" fill="#898781" text-anchor="middle" transform="rotate(-90 16 230.0)">ns per element (log scale, lower = faster)</text>
<line x1="62.0" y1="416" x2="62.0" y2="421" stroke="#898781"/>
<text x="62.0" y="436" font-size="11" fill="#898781" text-anchor="middle">8</text>
<line x1="162.9" y1="416" x2="162.9" y2="421" stroke="#898781"/>
<text x="162.9" y="436" font-size="11" fill="#898781" text-anchor="middle">64</text>
<line x1="263.9" y1="416" x2="263.9" y2="421" stroke="#898781"/>
<text x="263.9" y="436" font-size="11" fill="#898781" text-anchor="middle">512</text>
<line x1="364.8" y1="416" x2="364.8" y2="421" stroke="#898781"/>
<text x="364.8" y="436" font-size="11" fill="#898781" text-anchor="middle">4k</text>
<line x1="499.4" y1="416" x2="499.4" y2="421" stroke="#898781"/>
<text x="499.4" y="436" font-size="11" fill="#898781" text-anchor="middle">65k</text>
<line x1="634.0" y1="416" x2="634.0" y2="421" stroke="#898781"/>
<text x="634.0" y="436" font-size="11" fill="#898781" text-anchor="middle">1M</text>
<text x="348.0" y="462" font-size="12" fill="#898781" text-anchor="middle">n elements (log scale)</text>
<path d="M62.0,386.8 L95.6,370.1 L129.3,356.5 L162.9,341.7 L196.6,319.9 L230.2,291.0 L263.9,256.7 L297.5,218.7 L364.8,137.1" fill="none" stroke="#e34948" stroke-width="2" stroke-linejoin="round" stroke-linecap="round"/>
<circle cx="62.0" cy="386.8" r="2.6" fill="#e34948" stroke="#fcfcfb" stroke-width="0.8"/>
<circle cx="95.6" cy="370.1" r="2.6" fill="#e34948" stroke="#fcfcfb" stroke-width="0.8"/>
<circle cx="129.3" cy="356.5" r="2.6" fill="#e34948" stroke="#fcfcfb" stroke-width="0.8"/>
<circle cx="162.9" cy="341.7" r="2.6" fill="#e34948" stroke="#fcfcfb" stroke-width="0.8"/>
<circle cx="196.6" cy="319.9" r="2.6" fill="#e34948" stroke="#fcfcfb" stroke-width="0.8"/>
<circle cx="230.2" cy="291.0" r="2.6" fill="#e34948" stroke="#fcfcfb" stroke-width="0.8"/>
<circle cx="263.9" cy="256.7" r="2.6" fill="#e34948" stroke="#fcfcfb" stroke-width="0.8"/>
<circle cx="297.5" cy="218.7" r="2.6" fill="#e34948" stroke="#fcfcfb" stroke-width="0.8"/>
<circle cx="364.8" cy="137.1" r="2.6" fill="#e34948" stroke="#fcfcfb" stroke-width="0.8"/>
<path d="M62.0,346.0 L95.6,320.9 L129.3,303.0 L162.9,291.0 L196.6,281.5 L230.2,274.2 L263.9,267.9 L297.5,262.1 L364.8,253.4 L432.1,245.5 L499.4,238.2 L566.7,229.2 L634.0,219.5" fill="none" stroke="#9c5fb5" stroke-width="2" stroke-linejoin="round" stroke-linecap="round"/>
<circle cx="62.0" cy="346.0" r="2.6" fill="#9c5fb5" stroke="#fcfcfb" stroke-width="0.8"/>
<circle cx="95.6" cy="320.9" r="2.6" fill="#9c5fb5" stroke="#fcfcfb" stroke-width="0.8"/>
<circle cx="129.3" cy="303.0" r="2.6" fill="#9c5fb5" stroke="#fcfcfb" stroke-width="0.8"/>
<circle cx="162.9" cy="291.0" r="2.6" fill="#9c5fb5" stroke="#fcfcfb" stroke-width="0.8"/>
<circle cx="196.6" cy="281.5" r="2.6" fill="#9c5fb5" stroke="#fcfcfb" stroke-width="0.8"/>
<circle cx="230.2" cy="274.2" r="2.6" fill="#9c5fb5" stroke="#fcfcfb" stroke-width="0.8"/>
<circle cx="263.9" cy="267.9" r="2.6" fill="#9c5fb5" stroke="#fcfcfb" stroke-width="0.8"/>
<circle cx="297.5" cy="262.1" r="2.6" fill="#9c5fb5" stroke="#fcfcfb" stroke-width="0.8"/>
<circle cx="364.8" cy="253.4" r="2.6" fill="#9c5fb5" stroke="#fcfcfb" stroke-width="0.8"/>
<circle cx="432.1" cy="245.5" r="2.6" fill="#9c5fb5" stroke="#fcfcfb" stroke-width="0.8"/>
<circle cx="499.4" cy="238.2" r="2.6" fill="#9c5fb5" stroke="#fcfcfb" stroke-width="0.8"/>
<circle cx="566.7" cy="229.2" r="2.6" fill="#9c5fb5" stroke="#fcfcfb" stroke-width="0.8"/>
<circle cx="634.0" cy="219.5" r="2.6" fill="#9c5fb5" stroke="#fcfcfb" stroke-width="0.8"/>
<path d="M62.0,351.7 L95.6,336.9 L129.3,324.1 L162.9,313.0 L196.6,305.5 L230.2,298.3 L263.9,292.2 L297.5,286.2 L364.8,276.0 L432.1,266.4 L499.4,258.6 L566.7,250.9 L634.0,244.5" fill="none" stroke="#c98a2b" stroke-width="2" stroke-linejoin="round" stroke-linecap="round"/>
<circle cx="62.0" cy="351.7" r="2.6" fill="#c98a2b" stroke="#fcfcfb" stroke-width="0.8"/>
<circle cx="95.6" cy="336.9" r="2.6" fill="#c98a2b" stroke="#fcfcfb" stroke-width="0.8"/>
<circle cx="129.3" cy="324.1" r="2.6" fill="#c98a2b" stroke="#fcfcfb" stroke-width="0.8"/>
<circle cx="162.9" cy="313.0" r="2.6" fill="#c98a2b" stroke="#fcfcfb" stroke-width="0.8"/>
<circle cx="196.6" cy="305.5" r="2.6" fill="#c98a2b" stroke="#fcfcfb" stroke-width="0.8"/>
<circle cx="230.2" cy="298.3" r="2.6" fill="#c98a2b" stroke="#fcfcfb" stroke-width="0.8"/>
<circle cx="263.9" cy="292.2" r="2.6" fill="#c98a2b" stroke="#fcfcfb" stroke-width="0.8"/>
<circle cx="297.5" cy="286.2" r="2.6" fill="#c98a2b" stroke="#fcfcfb" stroke-width="0.8"/>
<circle cx="364.8" cy="276.0" r="2.6" fill="#c98a2b" stroke="#fcfcfb" stroke-width="0.8"/>
<circle cx="432.1" cy="266.4" r="2.6" fill="#c98a2b" stroke="#fcfcfb" stroke-width="0.8"/>
<circle cx="499.4" cy="258.6" r="2.6" fill="#c98a2b" stroke="#fcfcfb" stroke-width="0.8"/>
<circle cx="566.7" cy="250.9" r="2.6" fill="#c98a2b" stroke="#fcfcfb" stroke-width="0.8"/>
<circle cx="634.0" cy="244.5" r="2.6" fill="#c98a2b" stroke="#fcfcfb" stroke-width="0.8"/>
<path d="M62.0,379.5 L95.6,366.0 L129.3,333.3 L162.9,319.4 L196.6,309.5 L230.2,301.1 L263.9,294.5 L297.5,288.6 L364.8,278.6 L432.1,269.5 L499.4,262.1 L566.7,255.0 L634.0,249.6" fill="none" stroke="#2a78d6" stroke-width="2" stroke-linejoin="round" stroke-linecap="round"/>
<circle cx="62.0" cy="379.5" r="2.6" fill="#2a78d6" stroke="#fcfcfb" stroke-width="0.8"/>
<circle cx="95.6" cy="366.0" r="2.6" fill="#2a78d6" stroke="#fcfcfb" stroke-width="0.8"/>
<circle cx="129.3" cy="333.3" r="2.6" fill="#2a78d6" stroke="#fcfcfb" stroke-width="0.8"/>
<circle cx="162.9" cy="319.4" r="2.6" fill="#2a78d6" stroke="#fcfcfb" stroke-width="0.8"/>
<circle cx="196.6" cy="309.5" r="2.6" fill="#2a78d6" stroke="#fcfcfb" stroke-width="0.8"/>
<circle cx="230.2" cy="301.1" r="2.6" fill="#2a78d6" stroke="#fcfcfb" stroke-width="0.8"/>
<circle cx="263.9" cy="294.5" r="2.6" fill="#2a78d6" stroke="#fcfcfb" stroke-width="0.8"/>
<circle cx="297.5" cy="288.6" r="2.6" fill="#2a78d6" stroke="#fcfcfb" stroke-width="0.8"/>
<circle cx="364.8" cy="278.6" r="2.6" fill="#2a78d6" stroke="#fcfcfb" stroke-width="0.8"/>
<circle cx="432.1" cy="269.5" r="2.6" fill="#2a78d6" stroke="#fcfcfb" stroke-width="0.8"/>
<circle cx="499.4" cy="262.1" r="2.6" fill="#2a78d6" stroke="#fcfcfb" stroke-width="0.8"/>
<circle cx="566.7" cy="255.0" r="2.6" fill="#2a78d6" stroke="#fcfcfb" stroke-width="0.8"/>
<circle cx="634.0" cy="249.6" r="2.6" fill="#2a78d6" stroke="#fcfcfb" stroke-width="0.8"/>
<path d="M62.0,231.2 L95.6,269.4 L129.3,303.9 L162.9,330.2 L196.6,353.0 L230.2,368.4 L263.9,377.6 L297.5,382.4 L364.8,387.2 L432.1,384.0 L499.4,381.0 L566.7,364.0 L634.0,366.4" fill="none" stroke="#4a9db8" stroke-width="2" stroke-linejoin="round" stroke-linecap="round"/>
<circle cx="62.0" cy="231.2" r="2.6" fill="#4a9db8" stroke="#fcfcfb" stroke-width="0.8"/>
<circle cx="95.6" cy="269.4" r="2.6" fill="#4a9db8" stroke="#fcfcfb" stroke-width="0.8"/>
<circle cx="129.3" cy="303.9" r="2.6" fill="#4a9db8" stroke="#fcfcfb" stroke-width="0.8"/>
<circle cx="162.9" cy="330.2" r="2.6" fill="#4a9db8" stroke="#fcfcfb" stroke-width="0.8"/>
<circle cx="196.6" cy="353.0" r="2.6" fill="#4a9db8" stroke="#fcfcfb" stroke-width="0.8"/>
<circle cx="230.2" cy="368.4" r="2.6" fill="#4a9db8" stroke="#fcfcfb" stroke-width="0.8"/>
<circle cx="263.9" cy="377.6" r="2.6" fill="#4a9db8" stroke="#fcfcfb" stroke-width="0.8"/>
<circle cx="297.5" cy="382.4" r="2.6" fill="#4a9db8" stroke="#fcfcfb" stroke-width="0.8"/>
<circle cx="364.8" cy="387.2" r="2.6" fill="#4a9db8" stroke="#fcfcfb" stroke-width="0.8"/>
<circle cx="432.1" cy="384.0" r="2.6" fill="#4a9db8" stroke="#fcfcfb" stroke-width="0.8"/>
<circle cx="499.4" cy="381.0" r="2.6" fill="#4a9db8" stroke="#fcfcfb" stroke-width="0.8"/>
<circle cx="566.7" cy="364.0" r="2.6" fill="#4a9db8" stroke="#fcfcfb" stroke-width="0.8"/>
<circle cx="634.0" cy="366.4" r="2.6" fill="#4a9db8" stroke="#fcfcfb" stroke-width="0.8"/>
<path d="M62.0,352.0 L95.6,362.1 L129.3,366.7 L162.9,371.6 L196.6,373.5 L230.2,375.3 L263.9,375.4 L297.5,376.3 L364.8,377.4 L432.1,376.5 L499.4,374.9 L566.7,368.8 L634.0,366.5" fill="none" stroke="#898781" stroke-width="2" stroke-dasharray="5,3" stroke-linejoin="round" stroke-linecap="round"/>
<circle cx="62.0" cy="352.0" r="2.6" fill="#898781" stroke="#fcfcfb" stroke-width="0.8"/>
<circle cx="95.6" cy="362.1" r="2.6" fill="#898781" stroke="#fcfcfb" stroke-width="0.8"/>
<circle cx="129.3" cy="366.7" r="2.6" fill="#898781" stroke="#fcfcfb" stroke-width="0.8"/>
<circle cx="162.9" cy="371.6" r="2.6" fill="#898781" stroke="#fcfcfb" stroke-width="0.8"/>
<circle cx="196.6" cy="373.5" r="2.6" fill="#898781" stroke="#fcfcfb" stroke-width="0.8"/>
<circle cx="230.2" cy="375.3" r="2.6" fill="#898781" stroke="#fcfcfb" stroke-width="0.8"/>
<circle cx="263.9" cy="375.4" r="2.6" fill="#898781" stroke="#fcfcfb" stroke-width="0.8"/>
<circle cx="297.5" cy="376.3" r="2.6" fill="#898781" stroke="#fcfcfb" stroke-width="0.8"/>
<circle cx="364.8" cy="377.4" r="2.6" fill="#898781" stroke="#fcfcfb" stroke-width="0.8"/>
<circle cx="432.1" cy="376.5" r="2.6" fill="#898781" stroke="#fcfcfb" stroke-width="0.8"/>
<circle cx="499.4" cy="374.9" r="2.6" fill="#898781" stroke="#fcfcfb" stroke-width="0.8"/>
<circle cx="566.7" cy="368.8" r="2.6" fill="#898781" stroke="#fcfcfb" stroke-width="0.8"/>
<circle cx="634.0" cy="366.5" r="2.6" fill="#898781" stroke="#fcfcfb" stroke-width="0.8"/>
<path d="M62.0,377.5 L95.6,369.1 L129.3,376.1 L162.9,384.3 L196.6,387.8 L230.2,390.6 L263.9,391.2 L297.5,381.0 L364.8,384.8 L432.1,381.6 L499.4,378.1 L566.7,359.6 L634.0,363.2" fill="none" stroke="#1baf7a" stroke-width="4" stroke-linejoin="round" stroke-linecap="round"/>
<circle cx="62.0" cy="377.5" r="3.4" fill="#1baf7a" stroke="#fcfcfb" stroke-width="0.8"/>
<circle cx="95.6" cy="369.1" r="3.4" fill="#1baf7a" stroke="#fcfcfb" stroke-width="0.8"/>
<circle cx="129.3" cy="376.1" r="3.4" fill="#1baf7a" stroke="#fcfcfb" stroke-width="0.8"/>
<circle cx="162.9" cy="384.3" r="3.4" fill="#1baf7a" stroke="#fcfcfb" stroke-width="0.8"/>
<circle cx="196.6" cy="387.8" r="3.4" fill="#1baf7a" stroke="#fcfcfb" stroke-width="0.8"/>
<circle cx="230.2" cy="390.6" r="3.4" fill="#1baf7a" stroke="#fcfcfb" stroke-width="0.8"/>
<circle cx="263.9" cy="391.2" r="3.4" fill="#1baf7a" stroke="#fcfcfb" stroke-width="0.8"/>
<circle cx="297.5" cy="381.0" r="3.4" fill="#1baf7a" stroke="#fcfcfb" stroke-width="0.8"/>
<circle cx="364.8" cy="384.8" r="3.4" fill="#1baf7a" stroke="#fcfcfb" stroke-width="0.8"/>
<circle cx="432.1" cy="381.6" r="3.4" fill="#1baf7a" stroke="#fcfcfb" stroke-width="0.8"/>
<circle cx="499.4" cy="378.1" r="3.4" fill="#1baf7a" stroke="#fcfcfb" stroke-width="0.8"/>
<circle cx="566.7" cy="359.6" r="3.4" fill="#1baf7a" stroke="#fcfcfb" stroke-width="0.8"/>
<circle cx="634.0" cy="363.2" r="3.4" fill="#1baf7a" stroke="#fcfcfb" stroke-width="0.8"/>
<line x1="652" y1="50" x2="674" y2="50" stroke="#e34948" stroke-width="3"/>
<text x="680" y="54" font-size="11.5" font-weight="400" fill="#2a2a28">insertion</text>
<line x1="652" y1="73" x2="674" y2="73" stroke="#9c5fb5" stroke-width="3"/>
<text x="680" y="77" font-size="11.5" font-weight="400" fill="#2a2a28">heapsort</text>
<line x1="652" y1="96" x2="674" y2="96" stroke="#c98a2b" stroke-width="3"/>
<text x="680" y="100" font-size="11.5" font-weight="400" fill="#2a2a28">std::stable_sort</text>
<line x1="652" y1="119" x2="674" y2="119" stroke="#2a78d6" stroke-width="3"/>
<text x="680" y="123" font-size="11.5" font-weight="400" fill="#2a2a28">std::sort</text>
<line x1="652" y1="142" x2="674" y2="142" stroke="#4a9db8" stroke-width="3"/>
<text x="680" y="146" font-size="11.5" font-weight="400" fill="#2a2a28">radix</text>
<line x1="652" y1="165" x2="674" y2="165" stroke="#898781" stroke-width="3" stroke-dasharray="5,3"/>
<text x="680" y="169" font-size="11.5" font-weight="400" fill="#2a2a28">counting (bounded)</text>
<line x1="652" y1="188" x2="674" y2="188" stroke="#1baf7a" stroke-width="4.5"/>
<text x="680" y="192" font-size="11.5" font-weight="700" fill="#2a2a28">Sluice</text>
<text x="652" y="217" font-size="10" fill="#898781">all methods built with the</text>
<text x="652" y="230" font-size="10" fill="#898781">same flags (portable -O3).</text>
<text x="652" y="247" font-size="10" fill="#898781">Sluice uses radix past n=512,</text>
<text x="652" y="260" font-size="10" fill="#898781">so it tracks it (~scan cost).</text>
<text x="652" y="277" font-size="10" fill="#898781">insertion O(n²) -> off-scale;</text>
<text x="652" y="290" font-size="10" fill="#898781">counting on bounded [0,n).</text>
</svg>