<svg xmlns="http://www.w3.org/2000/svg" viewBox="0 0 830 470" font-family="system-ui,Segoe UI,Roboto,sans-serif">
<rect width="830" height="470" fill="#fcfcfb"/>
<text x="62" y="24" font-size="15" font-weight="700" fill="#2a2a28">Time per element across seven sort methods (uniform uint32)</text>
<line x1="62" y1="416.0" x2="634" y2="416.0" stroke="#e8e7e0" stroke-width="1"/>
<text x="54" y="420.0" font-size="11" fill="#898781" text-anchor="end">5</text>
<line x1="62" y1="373.6" x2="634" y2="373.6" stroke="#e8e7e0" stroke-width="1"/>
<text x="54" y="377.6" font-size="11" fill="#898781" text-anchor="end">10</text>
<line x1="62" y1="317.6" x2="634" y2="317.6" stroke="#e8e7e0" stroke-width="1"/>
<text x="54" y="321.6" font-size="11" fill="#898781" text-anchor="end">25</text>
<line x1="62" y1="275.3" x2="634" y2="275.3" stroke="#e8e7e0" stroke-width="1"/>
<text x="54" y="279.3" font-size="11" fill="#898781" text-anchor="end">50</text>
<line x1="62" y1="232.9" x2="634" y2="232.9" stroke="#e8e7e0" stroke-width="1"/>
<text x="54" y="236.9" font-size="11" fill="#898781" text-anchor="end">100</text>
<line x1="62" y1="176.9" x2="634" y2="176.9" stroke="#e8e7e0" stroke-width="1"/>
<text x="54" y="180.9" font-size="11" fill="#898781" text-anchor="end">250</text>
<line x1="62" y1="134.5" x2="634" y2="134.5" stroke="#e8e7e0" stroke-width="1"/>
<text x="54" y="138.5" font-size="11" fill="#898781" text-anchor="end">500</text>
<line x1="62" y1="92.2" x2="634" y2="92.2" stroke="#e8e7e0" stroke-width="1"/>
<text x="54" y="96.2" font-size="11" fill="#898781" text-anchor="end">1000</text>
<line x1="62" y1="49.8" x2="634" y2="49.8" stroke="#e8e7e0" stroke-width="1"/>
<text x="54" y="53.8" font-size="11" fill="#898781" text-anchor="end">2000</text>
<text x="16" y="230.0" font-size="12" fill="#898781" text-anchor="middle" transform="rotate(-90 16 230.0)">ns per element (log scale, lower = faster)</text>
<line x1="62.0" y1="416" x2="62.0" y2="421" stroke="#898781"/>
<text x="62.0" y="436" font-size="11" fill="#898781" text-anchor="middle">8</text>
<line x1="162.9" y1="416" x2="162.9" y2="421" stroke="#898781"/>
<text x="162.9" y="436" font-size="11" fill="#898781" text-anchor="middle">64</text>
<line x1="263.9" y1="416" x2="263.9" y2="421" stroke="#898781"/>
<text x="263.9" y="436" font-size="11" fill="#898781" text-anchor="middle">512</text>
<line x1="364.8" y1="416" x2="364.8" y2="421" stroke="#898781"/>
<text x="364.8" y="436" font-size="11" fill="#898781" text-anchor="middle">4k</text>
<line x1="499.4" y1="416" x2="499.4" y2="421" stroke="#898781"/>
<text x="499.4" y="436" font-size="11" fill="#898781" text-anchor="middle">65k</text>
<line x1="634.0" y1="416" x2="634.0" y2="421" stroke="#898781"/>
<text x="634.0" y="436" font-size="11" fill="#898781" text-anchor="middle">1M</text>
<text x="348.0" y="462" font-size="12" fill="#898781" text-anchor="middle">n elements (log scale)</text>
<path d="M62.0,385.9 L95.6,369.2 L129.3,353.7 L162.9,336.3 L196.6,318.8 L230.2,295.3 L263.9,264.6 L297.5,229.6 L364.8,149.8 L432.1,65.4" fill="none" stroke="#e34948" stroke-width="2" stroke-linejoin="round" stroke-linecap="round"/>
<circle cx="62.0" cy="385.9" r="2.6" fill="#e34948" stroke="#fcfcfb" stroke-width="0.8"/>
<circle cx="95.6" cy="369.2" r="2.6" fill="#e34948" stroke="#fcfcfb" stroke-width="0.8"/>
<circle cx="129.3" cy="353.7" r="2.6" fill="#e34948" stroke="#fcfcfb" stroke-width="0.8"/>
<circle cx="162.9" cy="336.3" r="2.6" fill="#e34948" stroke="#fcfcfb" stroke-width="0.8"/>
<circle cx="196.6" cy="318.8" r="2.6" fill="#e34948" stroke="#fcfcfb" stroke-width="0.8"/>
<circle cx="230.2" cy="295.3" r="2.6" fill="#e34948" stroke="#fcfcfb" stroke-width="0.8"/>
<circle cx="263.9" cy="264.6" r="2.6" fill="#e34948" stroke="#fcfcfb" stroke-width="0.8"/>
<circle cx="297.5" cy="229.6" r="2.6" fill="#e34948" stroke="#fcfcfb" stroke-width="0.8"/>
<circle cx="364.8" cy="149.8" r="2.6" fill="#e34948" stroke="#fcfcfb" stroke-width="0.8"/>
<circle cx="432.1" cy="65.4" r="2.6" fill="#e34948" stroke="#fcfcfb" stroke-width="0.8"/>
<path d="M62.0,350.9 L95.6,323.9 L129.3,302.6 L162.9,291.2 L196.6,281.8 L230.2,273.5 L263.9,266.3 L297.5,261.2 L364.8,251.9 L432.1,244.6 L499.4,236.8 L566.7,228.4 L634.0,217.7" fill="none" stroke="#9c5fb5" stroke-width="2" stroke-linejoin="round" stroke-linecap="round"/>
<circle cx="62.0" cy="350.9" r="2.6" fill="#9c5fb5" stroke="#fcfcfb" stroke-width="0.8"/>
<circle cx="95.6" cy="323.9" r="2.6" fill="#9c5fb5" stroke="#fcfcfb" stroke-width="0.8"/>
<circle cx="129.3" cy="302.6" r="2.6" fill="#9c5fb5" stroke="#fcfcfb" stroke-width="0.8"/>
<circle cx="162.9" cy="291.2" r="2.6" fill="#9c5fb5" stroke="#fcfcfb" stroke-width="0.8"/>
<circle cx="196.6" cy="281.8" r="2.6" fill="#9c5fb5" stroke="#fcfcfb" stroke-width="0.8"/>
<circle cx="230.2" cy="273.5" r="2.6" fill="#9c5fb5" stroke="#fcfcfb" stroke-width="0.8"/>
<circle cx="263.9" cy="266.3" r="2.6" fill="#9c5fb5" stroke="#fcfcfb" stroke-width="0.8"/>
<circle cx="297.5" cy="261.2" r="2.6" fill="#9c5fb5" stroke="#fcfcfb" stroke-width="0.8"/>
<circle cx="364.8" cy="251.9" r="2.6" fill="#9c5fb5" stroke="#fcfcfb" stroke-width="0.8"/>
<circle cx="432.1" cy="244.6" r="2.6" fill="#9c5fb5" stroke="#fcfcfb" stroke-width="0.8"/>
<circle cx="499.4" cy="236.8" r="2.6" fill="#9c5fb5" stroke="#fcfcfb" stroke-width="0.8"/>
<circle cx="566.7" cy="228.4" r="2.6" fill="#9c5fb5" stroke="#fcfcfb" stroke-width="0.8"/>
<circle cx="634.0" cy="217.7" r="2.6" fill="#9c5fb5" stroke="#fcfcfb" stroke-width="0.8"/>
<path d="M62.0,362.3 L95.6,345.6 L129.3,330.5 L162.9,317.2 L196.6,308.3 L230.2,299.8 L263.9,292.8 L297.5,286.2 L364.8,275.2 L432.1,265.6 L499.4,257.0 L566.7,248.9 L634.0,242.1" fill="none" stroke="#c98a2b" stroke-width="2" stroke-linejoin="round" stroke-linecap="round"/>
<circle cx="62.0" cy="362.3" r="2.6" fill="#c98a2b" stroke="#fcfcfb" stroke-width="0.8"/>
<circle cx="95.6" cy="345.6" r="2.6" fill="#c98a2b" stroke="#fcfcfb" stroke-width="0.8"/>
<circle cx="129.3" cy="330.5" r="2.6" fill="#c98a2b" stroke="#fcfcfb" stroke-width="0.8"/>
<circle cx="162.9" cy="317.2" r="2.6" fill="#c98a2b" stroke="#fcfcfb" stroke-width="0.8"/>
<circle cx="196.6" cy="308.3" r="2.6" fill="#c98a2b" stroke="#fcfcfb" stroke-width="0.8"/>
<circle cx="230.2" cy="299.8" r="2.6" fill="#c98a2b" stroke="#fcfcfb" stroke-width="0.8"/>
<circle cx="263.9" cy="292.8" r="2.6" fill="#c98a2b" stroke="#fcfcfb" stroke-width="0.8"/>
<circle cx="297.5" cy="286.2" r="2.6" fill="#c98a2b" stroke="#fcfcfb" stroke-width="0.8"/>
<circle cx="364.8" cy="275.2" r="2.6" fill="#c98a2b" stroke="#fcfcfb" stroke-width="0.8"/>
<circle cx="432.1" cy="265.6" r="2.6" fill="#c98a2b" stroke="#fcfcfb" stroke-width="0.8"/>
<circle cx="499.4" cy="257.0" r="2.6" fill="#c98a2b" stroke="#fcfcfb" stroke-width="0.8"/>
<circle cx="566.7" cy="248.9" r="2.6" fill="#c98a2b" stroke="#fcfcfb" stroke-width="0.8"/>
<circle cx="634.0" cy="242.1" r="2.6" fill="#c98a2b" stroke="#fcfcfb" stroke-width="0.8"/>
<path d="M62.0,384.3 L95.6,371.8 L129.3,338.4 L162.9,325.8 L196.6,316.0 L230.2,307.6 L263.9,300.2 L297.5,294.2 L364.8,283.6 L432.1,274.8 L499.4,265.9 L566.7,259.8 L634.0,253.8" fill="none" stroke="#2a78d6" stroke-width="2" stroke-linejoin="round" stroke-linecap="round"/>
<circle cx="62.0" cy="384.3" r="2.6" fill="#2a78d6" stroke="#fcfcfb" stroke-width="0.8"/>
<circle cx="95.6" cy="371.8" r="2.6" fill="#2a78d6" stroke="#fcfcfb" stroke-width="0.8"/>
<circle cx="129.3" cy="338.4" r="2.6" fill="#2a78d6" stroke="#fcfcfb" stroke-width="0.8"/>
<circle cx="162.9" cy="325.8" r="2.6" fill="#2a78d6" stroke="#fcfcfb" stroke-width="0.8"/>
<circle cx="196.6" cy="316.0" r="2.6" fill="#2a78d6" stroke="#fcfcfb" stroke-width="0.8"/>
<circle cx="230.2" cy="307.6" r="2.6" fill="#2a78d6" stroke="#fcfcfb" stroke-width="0.8"/>
<circle cx="263.9" cy="300.2" r="2.6" fill="#2a78d6" stroke="#fcfcfb" stroke-width="0.8"/>
<circle cx="297.5" cy="294.2" r="2.6" fill="#2a78d6" stroke="#fcfcfb" stroke-width="0.8"/>
<circle cx="364.8" cy="283.6" r="2.6" fill="#2a78d6" stroke="#fcfcfb" stroke-width="0.8"/>
<circle cx="432.1" cy="274.8" r="2.6" fill="#2a78d6" stroke="#fcfcfb" stroke-width="0.8"/>
<circle cx="499.4" cy="265.9" r="2.6" fill="#2a78d6" stroke="#fcfcfb" stroke-width="0.8"/>
<circle cx="566.7" cy="259.8" r="2.6" fill="#2a78d6" stroke="#fcfcfb" stroke-width="0.8"/>
<circle cx="634.0" cy="253.8" r="2.6" fill="#2a78d6" stroke="#fcfcfb" stroke-width="0.8"/>
<path d="M62.0,236.4 L95.6,274.7 L129.3,311.1 L162.9,341.1 L196.6,365.4 L230.2,381.9 L263.9,392.9 L297.5,399.4 L364.8,396.7 L432.1,392.7 L499.4,389.0 L566.7,371.6 L634.0,372.7" fill="none" stroke="#4a9db8" stroke-width="2" stroke-linejoin="round" stroke-linecap="round"/>
<circle cx="62.0" cy="236.4" r="2.6" fill="#4a9db8" stroke="#fcfcfb" stroke-width="0.8"/>
<circle cx="95.6" cy="274.7" r="2.6" fill="#4a9db8" stroke="#fcfcfb" stroke-width="0.8"/>
<circle cx="129.3" cy="311.1" r="2.6" fill="#4a9db8" stroke="#fcfcfb" stroke-width="0.8"/>
<circle cx="162.9" cy="341.1" r="2.6" fill="#4a9db8" stroke="#fcfcfb" stroke-width="0.8"/>
<circle cx="196.6" cy="365.4" r="2.6" fill="#4a9db8" stroke="#fcfcfb" stroke-width="0.8"/>
<circle cx="230.2" cy="381.9" r="2.6" fill="#4a9db8" stroke="#fcfcfb" stroke-width="0.8"/>
<circle cx="263.9" cy="392.9" r="2.6" fill="#4a9db8" stroke="#fcfcfb" stroke-width="0.8"/>
<circle cx="297.5" cy="399.4" r="2.6" fill="#4a9db8" stroke="#fcfcfb" stroke-width="0.8"/>
<circle cx="364.8" cy="396.7" r="2.6" fill="#4a9db8" stroke="#fcfcfb" stroke-width="0.8"/>
<circle cx="432.1" cy="392.7" r="2.6" fill="#4a9db8" stroke="#fcfcfb" stroke-width="0.8"/>
<circle cx="499.4" cy="389.0" r="2.6" fill="#4a9db8" stroke="#fcfcfb" stroke-width="0.8"/>
<circle cx="566.7" cy="371.6" r="2.6" fill="#4a9db8" stroke="#fcfcfb" stroke-width="0.8"/>
<circle cx="634.0" cy="372.7" r="2.6" fill="#4a9db8" stroke="#fcfcfb" stroke-width="0.8"/>
<path d="M62.0,356.8 L95.6,364.0 L129.3,369.1 L162.9,371.6 L196.6,373.7 L230.2,375.1 L263.9,376.4 L297.5,376.9 L364.8,378.1 L432.1,376.9 L499.4,374.5 L566.7,373.2 L634.0,367.2" fill="none" stroke="#898781" stroke-width="2" stroke-dasharray="5,3" stroke-linejoin="round" stroke-linecap="round"/>
<circle cx="62.0" cy="356.8" r="2.6" fill="#898781" stroke="#fcfcfb" stroke-width="0.8"/>
<circle cx="95.6" cy="364.0" r="2.6" fill="#898781" stroke="#fcfcfb" stroke-width="0.8"/>
<circle cx="129.3" cy="369.1" r="2.6" fill="#898781" stroke="#fcfcfb" stroke-width="0.8"/>
<circle cx="162.9" cy="371.6" r="2.6" fill="#898781" stroke="#fcfcfb" stroke-width="0.8"/>
<circle cx="196.6" cy="373.7" r="2.6" fill="#898781" stroke="#fcfcfb" stroke-width="0.8"/>
<circle cx="230.2" cy="375.1" r="2.6" fill="#898781" stroke="#fcfcfb" stroke-width="0.8"/>
<circle cx="263.9" cy="376.4" r="2.6" fill="#898781" stroke="#fcfcfb" stroke-width="0.8"/>
<circle cx="297.5" cy="376.9" r="2.6" fill="#898781" stroke="#fcfcfb" stroke-width="0.8"/>
<circle cx="364.8" cy="378.1" r="2.6" fill="#898781" stroke="#fcfcfb" stroke-width="0.8"/>
<circle cx="432.1" cy="376.9" r="2.6" fill="#898781" stroke="#fcfcfb" stroke-width="0.8"/>
<circle cx="499.4" cy="374.5" r="2.6" fill="#898781" stroke="#fcfcfb" stroke-width="0.8"/>
<circle cx="566.7" cy="373.2" r="2.6" fill="#898781" stroke="#fcfcfb" stroke-width="0.8"/>
<circle cx="634.0" cy="367.2" r="2.6" fill="#898781" stroke="#fcfcfb" stroke-width="0.8"/>
<path d="M62.0,386.8 L95.6,373.2 L129.3,381.0 L162.9,390.4 L196.6,396.1 L230.2,398.3 L263.9,399.7 L297.5,365.5 L364.8,379.8 L432.1,384.4 L499.4,385.5 L566.7,369.1 L634.0,373.4" fill="none" stroke="#1baf7a" stroke-width="4" stroke-linejoin="round" stroke-linecap="round"/>
<circle cx="62.0" cy="386.8" r="3.4" fill="#1baf7a" stroke="#fcfcfb" stroke-width="0.8"/>
<circle cx="95.6" cy="373.2" r="3.4" fill="#1baf7a" stroke="#fcfcfb" stroke-width="0.8"/>
<circle cx="129.3" cy="381.0" r="3.4" fill="#1baf7a" stroke="#fcfcfb" stroke-width="0.8"/>
<circle cx="162.9" cy="390.4" r="3.4" fill="#1baf7a" stroke="#fcfcfb" stroke-width="0.8"/>
<circle cx="196.6" cy="396.1" r="3.4" fill="#1baf7a" stroke="#fcfcfb" stroke-width="0.8"/>
<circle cx="230.2" cy="398.3" r="3.4" fill="#1baf7a" stroke="#fcfcfb" stroke-width="0.8"/>
<circle cx="263.9" cy="399.7" r="3.4" fill="#1baf7a" stroke="#fcfcfb" stroke-width="0.8"/>
<circle cx="297.5" cy="365.5" r="3.4" fill="#1baf7a" stroke="#fcfcfb" stroke-width="0.8"/>
<circle cx="364.8" cy="379.8" r="3.4" fill="#1baf7a" stroke="#fcfcfb" stroke-width="0.8"/>
<circle cx="432.1" cy="384.4" r="3.4" fill="#1baf7a" stroke="#fcfcfb" stroke-width="0.8"/>
<circle cx="499.4" cy="385.5" r="3.4" fill="#1baf7a" stroke="#fcfcfb" stroke-width="0.8"/>
<circle cx="566.7" cy="369.1" r="3.4" fill="#1baf7a" stroke="#fcfcfb" stroke-width="0.8"/>
<circle cx="634.0" cy="373.4" r="3.4" fill="#1baf7a" stroke="#fcfcfb" stroke-width="0.8"/>
<line x1="652" y1="50" x2="674" y2="50" stroke="#e34948" stroke-width="3"/>
<text x="680" y="54" font-size="11.5" font-weight="400" fill="#2a2a28">insertion</text>
<line x1="652" y1="73" x2="674" y2="73" stroke="#9c5fb5" stroke-width="3"/>
<text x="680" y="77" font-size="11.5" font-weight="400" fill="#2a2a28">heapsort</text>
<line x1="652" y1="96" x2="674" y2="96" stroke="#c98a2b" stroke-width="3"/>
<text x="680" y="100" font-size="11.5" font-weight="400" fill="#2a2a28">std::stable_sort</text>
<line x1="652" y1="119" x2="674" y2="119" stroke="#2a78d6" stroke-width="3"/>
<text x="680" y="123" font-size="11.5" font-weight="400" fill="#2a2a28">std::sort</text>
<line x1="652" y1="142" x2="674" y2="142" stroke="#4a9db8" stroke-width="3"/>
<text x="680" y="146" font-size="11.5" font-weight="400" fill="#2a2a28">radix</text>
<line x1="652" y1="165" x2="674" y2="165" stroke="#898781" stroke-width="3" stroke-dasharray="5,3"/>
<text x="680" y="169" font-size="11.5" font-weight="400" fill="#2a2a28">counting (bounded)</text>
<line x1="652" y1="188" x2="674" y2="188" stroke="#1baf7a" stroke-width="4.5"/>
<text x="680" y="192" font-size="11.5" font-weight="700" fill="#2a2a28">Sluice</text>
<text x="652" y="217" font-size="10" fill="#898781">insertion is O(n²),</text>
<text x="652" y="231" font-size="10" fill="#898781">shown to 16k then off-scale.</text>
<text x="652" y="249" font-size="10" fill="#898781">counting on bounded [0,n)</text>
<text x="652" y="263" font-size="10" fill="#898781">input (its valid domain).</text>
</svg>