<svg xmlns="http://www.w3.org/2000/svg" viewBox="0 0 830 470" font-family="system-ui,Segoe UI,Roboto,sans-serif">
<rect width="830" height="470" fill="#fcfcfb"/>
<text x="62" y="24" font-size="15" font-weight="700" fill="#2a2a28">Time per element across seven sort methods (uniform uint32)</text>
<line x1="62" y1="416.0" x2="634" y2="416.0" stroke="#e8e7e0" stroke-width="1"/>
<text x="54" y="420.0" font-size="11" fill="#898781" text-anchor="end">5</text>
<line x1="62" y1="372.5" x2="634" y2="372.5" stroke="#e8e7e0" stroke-width="1"/>
<text x="54" y="376.5" font-size="11" fill="#898781" text-anchor="end">10</text>
<line x1="62" y1="271.5" x2="634" y2="271.5" stroke="#e8e7e0" stroke-width="1"/>
<text x="54" y="275.5" font-size="11" fill="#898781" text-anchor="end">50</text>
<line x1="62" y1="228.0" x2="634" y2="228.0" stroke="#e8e7e0" stroke-width="1"/>
<text x="54" y="232.0" font-size="11" fill="#898781" text-anchor="end">100</text>
<line x1="62" y1="127.0" x2="634" y2="127.0" stroke="#e8e7e0" stroke-width="1"/>
<text x="54" y="131.0" font-size="11" fill="#898781" text-anchor="end">500</text>
<line x1="62" y1="83.5" x2="634" y2="83.5" stroke="#e8e7e0" stroke-width="1"/>
<text x="54" y="87.5" font-size="11" fill="#898781" text-anchor="end">1000</text>
<line x1="62" y1="40.0" x2="634" y2="40.0" stroke="#e8e7e0" stroke-width="1"/>
<text x="54" y="44.0" font-size="11" fill="#898781" text-anchor="end">2000</text>
<text transform="translate(18,228) rotate(-90)" font-size="11.5" fill="#898781" text-anchor="middle">ns per element (log scale, lower = faster)</text>
<line x1="62.0" y1="416" x2="62.0" y2="420" stroke="#898781" stroke-width="1"/>
<text x="62.0" y="433.0" font-size="11" fill="#898781" text-anchor="middle">8</text>
<line x1="162.9" y1="416" x2="162.9" y2="420" stroke="#898781" stroke-width="1"/>
<text x="162.9" y="433.0" font-size="11" fill="#898781" text-anchor="middle">64</text>
<line x1="263.9" y1="416" x2="263.9" y2="420" stroke="#898781" stroke-width="1"/>
<text x="263.9" y="433.0" font-size="11" fill="#898781" text-anchor="middle">512</text>
<line x1="364.8" y1="416" x2="364.8" y2="420" stroke="#898781" stroke-width="1"/>
<text x="364.8" y="433.0" font-size="11" fill="#898781" text-anchor="middle">4k</text>
<line x1="499.4" y1="416" x2="499.4" y2="420" stroke="#898781" stroke-width="1"/>
<text x="499.4" y="433.0" font-size="11" fill="#898781" text-anchor="middle">65k</text>
<line x1="566.7" y1="416" x2="566.7" y2="420" stroke="#898781" stroke-width="1"/>
<text x="566.7" y="433.0" font-size="11" fill="#898781" text-anchor="middle">262k</text>
<line x1="634.0" y1="416" x2="634.0" y2="420" stroke="#898781" stroke-width="1"/>
<text x="634.0" y="433.0" font-size="11" fill="#898781" text-anchor="middle">1048k</text>
<text x="348" y="463" font-size="11.5" fill="#898781" text-anchor="middle">n (elements, log scale)</text>
<line x1="62" y1="40" x2="62" y2="416" stroke="#898781" stroke-width="1"/>
<line x1="62" y1="416" x2="634" y2="416" stroke="#898781" stroke-width="1"/>
<polyline points="62.0,385.3 95.6,367.9 129.3,351.5 162.9,333.4 196.6,312.7 230.2,289.0 263.9,259.0 297.5,223.2 364.8,142.1 432.1,56.5" fill="none" stroke="#898781" stroke-width="1.8" stroke-dasharray="4 4" stroke-linejoin="round"/>
<circle cx="62.0" cy="385.3" r="2.2" fill="#898781"/>
<circle cx="95.6" cy="367.9" r="2.2" fill="#898781"/>
<circle cx="129.3" cy="351.5" r="2.2" fill="#898781"/>
<circle cx="162.9" cy="333.4" r="2.2" fill="#898781"/>
<circle cx="196.6" cy="312.7" r="2.2" fill="#898781"/>
<circle cx="230.2" cy="289.0" r="2.2" fill="#898781"/>
<circle cx="263.9" cy="259.0" r="2.2" fill="#898781"/>
<circle cx="297.5" cy="223.2" r="2.2" fill="#898781"/>
<circle cx="364.8" cy="142.1" r="2.2" fill="#898781"/>
<circle cx="432.1" cy="56.5" r="2.2" fill="#898781"/>
<polyline points="62.0,347.5 95.6,322.8 129.3,302.5 162.9,289.2 196.6,279.0 230.2,270.7 263.9,264.1 297.5,258.2 364.8,248.4 432.1,239.8 499.4,231.9 566.7,223.4 634.0,212.4" fill="none" stroke="#e34948" stroke-width="1.8" stroke-dasharray="2 3" stroke-linejoin="round"/>
<circle cx="62.0" cy="347.5" r="2.2" fill="#e34948"/>
<circle cx="95.6" cy="322.8" r="2.2" fill="#e34948"/>
<circle cx="129.3" cy="302.5" r="2.2" fill="#e34948"/>
<circle cx="162.9" cy="289.2" r="2.2" fill="#e34948"/>
<circle cx="196.6" cy="279.0" r="2.2" fill="#e34948"/>
<circle cx="230.2" cy="270.7" r="2.2" fill="#e34948"/>
<circle cx="263.9" cy="264.1" r="2.2" fill="#e34948"/>
<circle cx="297.5" cy="258.2" r="2.2" fill="#e34948"/>
<circle cx="364.8" cy="248.4" r="2.2" fill="#e34948"/>
<circle cx="432.1" cy="239.8" r="2.2" fill="#e34948"/>
<circle cx="499.4" cy="231.9" r="2.2" fill="#e34948"/>
<circle cx="566.7" cy="223.4" r="2.2" fill="#e34948"/>
<circle cx="634.0" cy="212.4" r="2.2" fill="#e34948"/>
<polyline points="62.0,354.6 95.6,341.6 129.3,325.9 162.9,312.1 196.6,303.4 230.2,294.1 263.9,288.0 297.5,281.8 364.8,270.4 432.1,260.2 499.4,250.9 566.7,243.0 634.0,235.4" fill="none" stroke="#c98a2b" stroke-width="1.8" stroke-dasharray="6 3" stroke-linejoin="round"/>
<circle cx="62.0" cy="354.6" r="2.2" fill="#c98a2b"/>
<circle cx="95.6" cy="341.6" r="2.2" fill="#c98a2b"/>
<circle cx="129.3" cy="325.9" r="2.2" fill="#c98a2b"/>
<circle cx="162.9" cy="312.1" r="2.2" fill="#c98a2b"/>
<circle cx="196.6" cy="303.4" r="2.2" fill="#c98a2b"/>
<circle cx="230.2" cy="294.1" r="2.2" fill="#c98a2b"/>
<circle cx="263.9" cy="288.0" r="2.2" fill="#c98a2b"/>
<circle cx="297.5" cy="281.8" r="2.2" fill="#c98a2b"/>
<circle cx="364.8" cy="270.4" r="2.2" fill="#c98a2b"/>
<circle cx="432.1" cy="260.2" r="2.2" fill="#c98a2b"/>
<circle cx="499.4" cy="250.9" r="2.2" fill="#c98a2b"/>
<circle cx="566.7" cy="243.0" r="2.2" fill="#c98a2b"/>
<circle cx="634.0" cy="235.4" r="2.2" fill="#c98a2b"/>
<polyline points="62.0,383.7 95.6,371.9 129.3,337.3 162.9,323.7 196.6,313.3 230.2,303.2 263.9,296.5 297.5,290.2 364.8,279.1 432.1,269.7 499.4,261.4 566.7,254.6 634.0,247.4" fill="none" stroke="#1baf7a" stroke-width="1.8" stroke-linejoin="round"/>
<circle cx="62.0" cy="383.7" r="2.2" fill="#1baf7a"/>
<circle cx="95.6" cy="371.9" r="2.2" fill="#1baf7a"/>
<circle cx="129.3" cy="337.3" r="2.2" fill="#1baf7a"/>
<circle cx="162.9" cy="323.7" r="2.2" fill="#1baf7a"/>
<circle cx="196.6" cy="313.3" r="2.2" fill="#1baf7a"/>
<circle cx="230.2" cy="303.2" r="2.2" fill="#1baf7a"/>
<circle cx="263.9" cy="296.5" r="2.2" fill="#1baf7a"/>
<circle cx="297.5" cy="290.2" r="2.2" fill="#1baf7a"/>
<circle cx="364.8" cy="279.1" r="2.2" fill="#1baf7a"/>
<circle cx="432.1" cy="269.7" r="2.2" fill="#1baf7a"/>
<circle cx="499.4" cy="261.4" r="2.2" fill="#1baf7a"/>
<circle cx="566.7" cy="254.6" r="2.2" fill="#1baf7a"/>
<circle cx="634.0" cy="247.4" r="2.2" fill="#1baf7a"/>
<polyline points="62.0,252.3 95.6,284.7 129.3,309.0 162.9,328.1 196.6,371.3 230.2,385.0 263.9,392.7 297.5,397.9 364.8,402.0 432.1,395.1 499.4,391.4 566.7,372.0 634.0,374.8" fill="none" stroke="#9c5fb5" stroke-width="1.8" stroke-dasharray="8 3 2 3" stroke-linejoin="round"/>
<circle cx="62.0" cy="252.3" r="2.2" fill="#9c5fb5"/>
<circle cx="95.6" cy="284.7" r="2.2" fill="#9c5fb5"/>
<circle cx="129.3" cy="309.0" r="2.2" fill="#9c5fb5"/>
<circle cx="162.9" cy="328.1" r="2.2" fill="#9c5fb5"/>
<circle cx="196.6" cy="371.3" r="2.2" fill="#9c5fb5"/>
<circle cx="230.2" cy="385.0" r="2.2" fill="#9c5fb5"/>
<circle cx="263.9" cy="392.7" r="2.2" fill="#9c5fb5"/>
<circle cx="297.5" cy="397.9" r="2.2" fill="#9c5fb5"/>
<circle cx="364.8" cy="402.0" r="2.2" fill="#9c5fb5"/>
<circle cx="432.1" cy="395.1" r="2.2" fill="#9c5fb5"/>
<circle cx="499.4" cy="391.4" r="2.2" fill="#9c5fb5"/>
<circle cx="566.7" cy="372.0" r="2.2" fill="#9c5fb5"/>
<circle cx="634.0" cy="374.8" r="2.2" fill="#9c5fb5"/>
<polyline points="297.5,387.1 432.1,384.5 566.7,375.6 634.0,373.0" fill="none" stroke="#4a9db8" stroke-width="1.8" stroke-dasharray="10 4" stroke-linejoin="round"/>
<circle cx="297.5" cy="387.1" r="2.2" fill="#4a9db8"/>
<circle cx="432.1" cy="384.5" r="2.2" fill="#4a9db8"/>
<circle cx="566.7" cy="375.6" r="2.2" fill="#4a9db8"/>
<circle cx="634.0" cy="373.0" r="2.2" fill="#4a9db8"/>
<polyline points="62.0,383.6 95.6,377.9 129.3,384.9 162.9,392.1 196.6,397.3 230.2,398.2 263.9,400.3 297.5,385.8 364.8,391.6 432.1,387.5 499.4,385.0 566.7,368.8 634.0,371.5" fill="none" stroke="#2a78d6" stroke-width="2.6" stroke-linejoin="round"/>
<circle cx="62.0" cy="383.6" r="2.2" fill="#2a78d6"/>
<circle cx="95.6" cy="377.9" r="2.2" fill="#2a78d6"/>
<circle cx="129.3" cy="384.9" r="2.2" fill="#2a78d6"/>
<circle cx="162.9" cy="392.1" r="2.2" fill="#2a78d6"/>
<circle cx="196.6" cy="397.3" r="2.2" fill="#2a78d6"/>
<circle cx="230.2" cy="398.2" r="2.2" fill="#2a78d6"/>
<circle cx="263.9" cy="400.3" r="2.2" fill="#2a78d6"/>
<circle cx="297.5" cy="385.8" r="2.2" fill="#2a78d6"/>
<circle cx="364.8" cy="391.6" r="2.2" fill="#2a78d6"/>
<circle cx="432.1" cy="387.5" r="2.2" fill="#2a78d6"/>
<circle cx="499.4" cy="385.0" r="2.2" fill="#2a78d6"/>
<circle cx="566.7" cy="368.8" r="2.2" fill="#2a78d6"/>
<circle cx="634.0" cy="371.5" r="2.2" fill="#2a78d6"/>
<line x1="654" y1="50" x2="674" y2="50" stroke="#898781" stroke-width="2" stroke-dasharray="4 4"/>
<text x="680" y="54" font-size="11.5" font-weight="400" fill="#2a2a28">insertion</text>
<line x1="654" y1="73" x2="674" y2="73" stroke="#e34948" stroke-width="2" stroke-dasharray="2 3"/>
<text x="680" y="77" font-size="11.5" font-weight="400" fill="#2a2a28">heapsort</text>
<line x1="654" y1="96" x2="674" y2="96" stroke="#c98a2b" stroke-width="2" stroke-dasharray="6 3"/>
<text x="680" y="100" font-size="11.5" font-weight="400" fill="#2a2a28">std::stable_sort</text>
<line x1="654" y1="119" x2="674" y2="119" stroke="#1baf7a" stroke-width="2"/>
<text x="680" y="123" font-size="11.5" font-weight="400" fill="#2a2a28">std::sort</text>
<line x1="654" y1="142" x2="674" y2="142" stroke="#9c5fb5" stroke-width="2" stroke-dasharray="8 3 2 3"/>
<text x="680" y="146" font-size="11.5" font-weight="400" fill="#2a2a28">radix</text>
<line x1="654" y1="165" x2="674" y2="165" stroke="#4a9db8" stroke-width="2" stroke-dasharray="10 4"/>
<text x="680" y="169" font-size="11.5" font-weight="400" fill="#2a2a28">counting (bounded)</text>
<line x1="654" y1="188" x2="674" y2="188" stroke="#2a78d6" stroke-width="3"/>
<text x="680" y="192" font-size="11.5" font-weight="700" fill="#2a2a28">Sluice</text>
<text x="652" y="217" font-size="10" fill="#898781">all methods built with the</text>
<text x="652" y="230" font-size="10" fill="#898781">same flags (portable -O3).</text>
<text x="652" y="247" font-size="10" fill="#898781">Sluice uses radix past n=512,</text>
<text x="652" y="260" font-size="10" fill="#898781">so it tracks it (~scan cost).</text>
<text x="652" y="277" font-size="10" fill="#898781">insertion O(n²) -> off-scale;</text>
<text x="652" y="290" font-size="10" fill="#898781">counting on bounded [0,n).</text>
<text x="652" y="307" font-size="10" fill="#898781">measured on a single-core</text>
<text x="652" y="320" font-size="10" fill="#898781">sandbox; read ratios, not</text>
<text x="652" y="333" font-size="10" fill="#898781">absolute ns.</text>
</svg>